<?xml version="1.0" encoding="iso-8859-1"?>
<!-- Generator: Adobe Illustrator 19.0.0, SVG Export Plug-In . SVG Version: 6.00 Build 0)  -->
<svg version="1.1" id="Capa_1" xmlns="http://www.w3.org/2000/svg" xmlns:xlink="http://www.w3.org/1999/xlink" x="0px" y="0px"
	 viewBox="0 0 512 512" style="enable-background:new 0 0 512 512;" xml:space="preserve">
<g>
	<path style="fill:#3F6199;" d="M348.701,436c0,8.401-6.901,15-15,15H178.299c-8.099,0-15-6.599-15-15s6.901-15,15-15h155.402
		C341.8,421,348.701,427.599,348.701,436z"/>
	<path style="fill:#3F6199;" d="M65.189,226.19c-2.578,0-5.186-0.659-7.573-2.065c-7.148-4.189-9.536-13.374-5.347-20.522
		l47.783-81.504c4.16-7.148,13.345-9.565,20.522-5.347c7.148,4.189,9.536,13.374,5.347,20.522l-47.783,81.504
		C75.355,223.539,70.346,226.19,65.189,226.19z"/>
	<path style="fill:#3F6199;" d="M113.002,397.313c-5.156,0-10.166-2.651-12.949-7.412L52.27,308.397
		c-4.189-7.148-1.802-16.333,5.347-20.522c7.134-4.219,16.333-1.802,20.522,5.347l47.783,81.504
		c4.189,7.148,1.802,16.333-5.347,20.522C118.187,396.654,115.58,397.313,113.002,397.313z"/>
	<path style="fill:#3F6199;" d="M348.701,76c0,8.401-6.901,15-15,15H178.299c-8.099,0-15-6.599-15-15s6.901-15,15-15h155.402
		C341.8,61,348.701,67.599,348.701,76z"/>
	<path style="fill:#3F6199;" d="M421,256c0,8.401-6.599,15-15,15H284.801l75,106.5c4.799,6.901,2.999,16.201-3.6,21
		c-2.701,1.8-5.7,2.701-8.701,2.701c-4.799,0-9.3-2.401-12.299-6.301L256,282.1l-79.2,112.8c-2.999,3.9-7.5,6.301-12.299,6.301
		c-3.001,0-6-0.901-8.701-2.701c-6.599-4.799-8.399-14.099-3.6-21l75-106.5H106c-8.401,0-15-6.599-15-15s6.599-15,15-15h121.199
		l-75-106.5c-4.799-6.901-2.999-16.201,3.6-21c6.901-4.799,16.201-2.999,21,3.6L256,229.9l79.2-112.8
		c4.799-6.599,14.099-8.399,21-3.6c6.599,4.799,8.399,14.099,3.6,21l-75,106.5H406C414.401,241,421,247.599,421,256z"/>
</g>
<g>
	<path style="fill:#355382;" d="M398.998,397.313c-2.578,0-5.186-0.659-7.573-2.065c-7.148-4.189-9.536-13.374-5.347-20.522
		l47.783-81.504c4.16-7.148,13.345-9.565,20.522-5.347c7.148,4.189,9.536,13.374,5.347,20.522l-47.783,81.504
		C409.164,394.662,404.154,397.313,398.998,397.313z"/>
	<path style="fill:#355382;" d="M446.811,226.19c-5.156,0-10.166-2.651-12.949-7.412l-47.783-81.504
		c-4.189-7.148-1.802-16.333,5.347-20.522c7.134-4.219,16.333-1.802,20.522,5.347l47.783,81.504
		c4.189,7.148,1.802,16.333-5.347,20.522C451.996,225.531,449.389,226.19,446.811,226.19z"/>
	<path style="fill:#355382;" d="M348.701,436c0,8.401-6.901,15-15,15H256v-30h77.701C341.8,421,348.701,427.599,348.701,436z"/>
	<path style="fill:#355382;" d="M333.701,91H256V61h77.701c8.099,0,15,6.599,15,15S341.8,91,333.701,91z"/>
	<path style="fill:#355382;" d="M421,256c0,8.401-6.599,15-15,15H284.801l75,106.5c4.799,6.901,2.999,16.201-3.6,21
		c-2.701,1.8-5.7,2.701-8.701,2.701c-4.799,0-9.3-2.401-12.299-6.301L256,282.1v-52.2l79.2-112.8c4.799-6.599,14.099-8.399,21-3.6
		c6.599,4.799,8.399,14.099,3.6,21l-75,106.5H406C414.401,241,421,247.599,421,256z"/>
</g>
<path style="fill:#368DCF;" d="M136,151c-33.091,0-60-26.909-60-60s26.909-60,60-60s60,26.909,60,60S169.091,151,136,151z"/>
<path style="fill:#2B75AD;" d="M376,151c-33.091,0-60-26.909-60-60s26.909-60,60-60s60,26.909,60,60S409.091,151,376,151z"/>
<path style="fill:#368DCF;" d="M136,481c-33.091,0-60-26.909-60-60s26.909-60,60-60s60,26.909,60,60S169.091,481,136,481z"/>
<path style="fill:#FF3F2E;" d="M60,314c-33.091,0-60-26.909-60-60s26.909-60,60-60s60,26.909,60,60S93.091,314,60,314z"/>
<path style="fill:#CF0404;" d="M452,316c-33.091,0-60-26.909-60-60s26.909-60,60-60s60,26.909,60,60S485.091,316,452,316z"/>
<path style="fill:#2B75AD;" d="M376,481c-33.091,0-60-26.909-60-60s26.909-60,60-60s60,26.909,60,60S409.091,481,376,481z"/>
<g>
</g>
<g>
</g>
<g>
</g>
<g>
</g>
<g>
</g>
<g>
</g>
<g>
</g>
<g>
</g>
<g>
</g>
<g>
</g>
<g>
</g>
<g>
</g>
<g>
</g>
<g>
</g>
<g>
</g>
</svg>
